<svg width="15" height="12" viewBox="0 0 15 12" fill="none" xmlns="http://www.w3.org/2000/svg">
<path d="M5.52749 11.0757C5.08967 11.0757 5.16407 10.9176 5.01307 10.5189L3.72559 6.46596L13.636 0.842346" fill="#9399AB"/>
<path d="M5.52759 11.0757C5.86544 11.0757 6.01472 10.9279 6.2033 10.7526L8.0052 9.07665L5.75756 7.78024" fill="#70788E"/>
<path d="M5.75722 7.78058L11.2035 11.6293C11.825 11.9573 12.2735 11.7875 12.4283 11.0774L14.6452 1.08498C14.8722 0.214583 14.2983 -0.180189 13.7038 0.0779939L0.686168 4.87918C-0.202406 5.22008 -0.197226 5.69425 0.524199 5.90554L3.86481 6.90284L11.5987 2.23587C11.9638 2.02411 12.2989 2.13796 12.0238 2.37143" fill="#B6BAC7"/>
</svg>
